<?xml version="1.0" standalone="no"?>
<!DOCTYPE svg PUBLIC "-//W3C//DTD SVG 20010904//EN"
 "http://www.w3.org/TR/2001/REC-SVG-20010904/DTD/svg10.dtd">
<svg version="1.0" xmlns="http://www.w3.org/2000/svg"
 width="909.000000pt" height="909.000000pt" viewBox="0 0 909.000000 909.000000"
 preserveAspectRatio="xMidYMid meet">
<metadata>
Created by potrace 1.14, written by Peter Selinger 2001-2017
</metadata>
<g transform="translate(0.000000,909.000000) scale(0.100000,-0.100000)"
fill="#000000" stroke="none">
<path d="M4375 9083 c-587 -20 -1178 -165 -1755 -433 -519 -241 -1006 -601
-1419 -1050 -171 -186 -256 -292 -383 -476 -422 -612 -678 -1294 -774 -2064
-26 -207 -31 -720 -9 -942 74 -767 315 -1455 726 -2070 303 -453 745 -896
1222 -1223 583 -401 1310 -677 2057 -781 157 -21 665 -30 853 -15 570 48 1111
199 1652 460 393 190 728 414 1050 702 467 417 795 851 1055 1391 222 463 368
1011 419 1568 14 146 14 598 1 755 -68 811 -349 1599 -798 2240 -317 453 -737
864 -1197 1172 -591 395 -1258 648 -1935 733 -152 19 -534 42 -640 38 -25 -1
-81 -3 -125 -5z"/>
</g>
</svg>
